<?xml version="1.0" encoding="iso-8859-1"?>
<!-- Generator: Adobe Illustrator 18.1.1, SVG Export Plug-In . SVG Version: 6.00 Build 0)  -->
<svg version="1.1" id="Capa_1" xmlns="http://www.w3.org/2000/svg" xmlns:xlink="http://www.w3.org/1999/xlink" x="0px" y="0px"
	 viewBox="0 0 420.473 420.473" style="enable-background:new 0 0 420.473 420.473;" xml:space="preserve">
<g>
	<g>
		<path style="fill:#010002;" d="M416.976,204.209L218.673,5.912c-4.66-4.66-12.22-4.66-16.874,0L3.496,204.209
			c-3.413,3.413-4.433,8.545-2.59,13.002c1.85,4.463,6.2,7.369,11.027,7.369h46.148l17.901,181.542
			c0,6.587,5.346,11.934,11.934,11.934h250.609c6.587,0,11.934-5.346,11.934-11.934l11.934-181.542h46.148
			c4.827,0,9.177-2.906,11.027-7.369C421.41,212.76,420.389,207.622,416.976,204.209z M210.236,334.048
			c-35.372,0-64.144-28.772-64.144-64.144s28.772-64.144,64.144-64.144s64.144,28.772,64.144,64.144
			S245.608,334.048,210.236,334.048z"/>
		<path style="fill:#010002;" d="M210.236,229.628c-22.209,0-40.276,18.068-40.276,40.276s18.068,40.276,40.276,40.276
			s40.276-18.068,40.276-40.276S232.445,229.628,210.236,229.628z"/>
	</g>
</g>
<g>
</g>
<g>
</g>
<g>
</g>
<g>
</g>
<g>
</g>
<g>
</g>
<g>
</g>
<g>
</g>
<g>
</g>
<g>
</g>
<g>
</g>
<g>
</g>
<g>
</g>
<g>
</g>
<g>
</g>
</svg>
